<svg width="20" height="20" viewBox="0 0 20 20" fill="none" xmlns="http://www.w3.org/2000/svg">
<path d="M2.15235 10.804C2.03021 10.7661 1.92309 10.6908 1.84616 10.5886C1.76924 10.4865 1.72641 10.3627 1.72375 10.2349C1.72109 10.1071 1.75873 9.98165 1.83134 9.8764C1.90396 9.77116 2.00785 9.69144 2.1283 9.64854L13.6973 5.47449C13.8056 5.43532 13.9227 5.42765 14.0352 5.45238C14.1477 5.47711 14.2508 5.53322 14.3327 5.6142C14.4146 5.69519 14.4718 5.79772 14.4978 5.90991C14.5237 6.0221 14.5173 6.13935 14.4793 6.24806L10.3703 17.8807C10.3274 18.0009 10.2477 18.1046 10.1426 18.177C10.0375 18.2495 9.91223 18.2871 9.78459 18.2845C9.65695 18.2819 9.53334 18.2393 9.43125 18.1626C9.32915 18.086 9.25373 17.9792 9.21563 17.8573L7.54686 12.472L2.15235 10.804Z" stroke="black" stroke-width="2" stroke-miterlimit="10" stroke-linecap="round" stroke-linejoin="round"/>
</svg>
