<svg width="64" height="64" viewBox="0 0 64 64" fill="none" xmlns="http://www.w3.org/2000/svg">
<rect width="64" height="64" rx="16" fill="#57CE96"/>
<path d="M51.1837 34.8716L46.1897 36.1681C46.1417 34.5835 46.1417 33.431 46.1417 33.431H32.3121H32.2641H31.7839H31.7359H17.9064C17.9064 33.431 17.8583 34.5835 17.8583 36.2161L12.8163 34.8716C12.2401 34.7275 11.6639 36.8404 12.2881 36.9845L17.8583 38.425C17.8583 40.4899 17.8583 42.7468 18.0024 44.0913C18.2905 47.2125 19.0588 49.0373 23.3325 49.7095C27.03 50.2858 30.9676 50.2377 32.024 50.2377C33.0804 50.2858 37.018 50.2858 40.7155 49.7095C45.0372 49.0373 45.7575 47.1645 46.0456 44.0913C46.1897 42.6987 46.1897 40.4899 46.1897 38.377L51.7119 36.9364C52.3361 36.8404 51.7599 34.7275 51.1837 34.8716Z" fill="#01246B"/>
<path d="M18.6267 31.6063C19.9712 29.6855 19.539 27.5247 17.3302 26.1321C15.1213 24.7395 14.9292 22.1465 16.946 19.3134C18.2905 17.3446 17.7623 15.1357 15.5534 13.7431" stroke="white" stroke-opacity="0.5" stroke-miterlimit="10" stroke-linecap="round"/>
<path d="M20.7395 23.443C19.2989 22.1465 19.443 20.3218 21.3157 18.449C22.6602 17.1045 22.4682 15.5679 21.0276 14.2714" stroke="white" stroke-opacity="0.5" stroke-miterlimit="10" stroke-linecap="round"/>
<path d="M35.0012 27.1885L35.3854 26.3242C34.521 26.0361 33.9928 25.5559 34.0408 25.0757C34.1369 24.4994 35.2413 24.1633 36.5378 24.3554C37.8343 24.5475 38.7467 25.2197 38.6507 25.796C38.5546 26.2762 37.8824 26.5643 36.97 26.5643L37.066 27.4766C44.2689 28.7732 49.7911 30.982 49.503 32.5667L21.5078 27.9568C21.7959 26.4682 27.7503 26.1321 35.0012 27.1885Z" fill="#01246B"/>
<path d="M27.03 28.1969L23.5246 27.6207C24.2449 26.9484 27.1741 26.8044 30.9196 27.1885C27.03 27.1405 26.934 27.9088 27.03 28.1969Z" fill="white"/>
<path d="M34.8091 25.7479C34.665 25.6039 34.665 25.4598 34.7131 25.2678C34.8091 24.7876 35.6734 24.4995 36.6819 24.5955C36.6338 24.5955 36.5858 24.5475 36.5378 24.5475C35.4334 24.3554 34.521 24.6435 34.4249 25.1237C34.3769 25.3638 34.569 25.5559 34.8091 25.7479Z" fill="white"/>
<path d="M28.2785 48.8452C24.2449 48.2209 23.5726 46.5403 23.2845 43.7071C23.0444 41.2582 23.1885 35.832 23.2365 34.3434H18.9628C18.9147 35.784 18.8187 41.3062 19.0108 43.7552C19.2989 46.5883 19.9712 48.269 24.0048 48.8932C27.4622 49.4214 31.1116 49.3734 32.12 49.3734C32.5522 49.3734 30.7275 49.2293 28.2785 48.8452Z" fill="white"/>
</svg>
