<svg width="24" height="24" viewBox="0 0 24 24" fill="none" xmlns="http://www.w3.org/2000/svg">
<path d="M19 7H22" stroke="#18172B" stroke-width="2" stroke-linecap="round" stroke-linejoin="round"/>
<path d="M2.43115 7H13.6812" stroke="#18172B" stroke-width="2" stroke-linecap="round" stroke-linejoin="round"/>
<path d="M10.75 17H21.75" stroke="#18172B" stroke-width="2" stroke-linecap="round" stroke-linejoin="round"/>
<path d="M2.43115 17H5.43115" stroke="#18172B" stroke-width="2" stroke-linecap="round" stroke-linejoin="round"/>
<path d="M16.5 9.5C17.8807 9.5 19 8.38071 19 7C19 5.61929 17.8807 4.5 16.5 4.5C15.1193 4.5 14 5.61929 14 7C14 8.38071 15.1193 9.5 16.5 9.5Z" stroke="#18172B" stroke-width="2" stroke-linecap="round" stroke-linejoin="round"/>
<path d="M8.25 19.5C9.63071 19.5 10.75 18.3807 10.75 17C10.75 15.6193 9.63071 14.5 8.25 14.5C6.86929 14.5 5.75 15.6193 5.75 17C5.75 18.3807 6.86929 19.5 8.25 19.5Z" stroke="#18172B" stroke-width="2" stroke-linecap="round" stroke-linejoin="round"/>
</svg>
