<svg width="18" height="19" viewBox="0 0 18 19" fill="none" xmlns="http://www.w3.org/2000/svg">
<path d="M17.832 1.555C17.9324 1.4044 17.9902 1.22935 17.9989 1.04852C18.0077 0.867687 17.9673 0.687865 17.8818 0.528235C17.7964 0.368605 17.6693 0.235156 17.514 0.142126C17.3587 0.049095 17.181 -2.70837e-05 17 1.12028e-08H0.999972C0.819087 9.3452e-05 0.641616 0.0492478 0.486458 0.142228C0.3313 0.235208 0.204268 0.368532 0.11889 0.527999C0.0335129 0.687466 -0.00701244 0.867105 0.00163075 1.04778C0.0102739 1.22846 0.0677618 1.40341 0.167972 1.554L7.99997 13.303V17H4.99997V19H13V17H9.99997V13.303L17.832 1.555ZM8.99997 11.197L5.53497 6H12.465L8.99997 11.197ZM15.132 2L13.799 4H4.20097L2.86797 2H15.132Z" fill="#6E80B0"/>
</svg>
