<svg width="104" height="48" viewBox="0 0 104 48" fill="none" xmlns="http://www.w3.org/2000/svg">
<rect opacity="0.05" width="104" height="48" rx="18" fill="#6D61F2"/>
<path d="M55.56 19.66V28H54.192V24.352H50.268V28H48.9V19.66H50.268V23.236H54.192V19.66H55.56ZM60.2289 28.108C59.6049 28.108 59.0409 27.968 58.5369 27.688C58.0329 27.4 57.6369 27 57.3489 26.488C57.0609 25.968 56.9169 25.368 56.9169 24.688C56.9169 24.016 57.0649 23.42 57.3609 22.9C57.6569 22.38 58.0609 21.98 58.5729 21.7C59.0849 21.42 59.6569 21.28 60.2889 21.28C60.9209 21.28 61.4929 21.42 62.0049 21.7C62.5169 21.98 62.9209 22.38 63.2169 22.9C63.5129 23.42 63.6609 24.016 63.6609 24.688C63.6609 25.36 63.5089 25.956 63.2049 26.476C62.9009 26.996 62.4849 27.4 61.9569 27.688C61.4369 27.968 60.8609 28.108 60.2289 28.108ZM60.2289 26.92C60.5809 26.92 60.9089 26.836 61.2129 26.668C61.5249 26.5 61.7769 26.248 61.9689 25.912C62.1609 25.576 62.2569 25.168 62.2569 24.688C62.2569 24.208 62.1649 23.804 61.9809 23.476C61.7969 23.14 61.5529 22.888 61.2489 22.72C60.9449 22.552 60.6169 22.468 60.2649 22.468C59.9129 22.468 59.5849 22.552 59.2809 22.72C58.9849 22.888 58.7489 23.14 58.5729 23.476C58.3969 23.804 58.3089 24.208 58.3089 24.688C58.3089 25.4 58.4889 25.952 58.8489 26.344C59.2169 26.728 59.6769 26.92 60.2289 26.92ZM73.0173 21.28C73.5373 21.28 74.0013 21.388 74.4093 21.604C74.8253 21.82 75.1493 22.14 75.3813 22.564C75.6213 22.988 75.7413 23.5 75.7413 24.1V28H74.3853V24.304C74.3853 23.712 74.2373 23.26 73.9413 22.948C73.6453 22.628 73.2413 22.468 72.7293 22.468C72.2173 22.468 71.8093 22.628 71.5053 22.948C71.2093 23.26 71.0613 23.712 71.0613 24.304V28H69.7053V24.304C69.7053 23.712 69.5573 23.26 69.2613 22.948C68.9653 22.628 68.5613 22.468 68.0493 22.468C67.5373 22.468 67.1293 22.628 66.8253 22.948C66.5293 23.26 66.3813 23.712 66.3813 24.304V28H65.0133V21.388H66.3813V22.144C66.6053 21.872 66.8893 21.66 67.2333 21.508C67.5773 21.356 67.9453 21.28 68.3373 21.28C68.8653 21.28 69.3373 21.392 69.7533 21.616C70.1693 21.84 70.4893 22.164 70.7133 22.588C70.9133 22.188 71.2253 21.872 71.6493 21.64C72.0733 21.4 72.5293 21.28 73.0173 21.28ZM83.542 24.532C83.542 24.78 83.526 25.004 83.494 25.204H78.442C78.482 25.732 78.678 26.156 79.03 26.476C79.382 26.796 79.814 26.956 80.326 26.956C81.062 26.956 81.582 26.648 81.886 26.032H83.362C83.162 26.64 82.798 27.14 82.27 27.532C81.75 27.916 81.102 28.108 80.326 28.108C79.694 28.108 79.126 27.968 78.622 27.688C78.126 27.4 77.734 27 77.446 26.488C77.166 25.968 77.026 25.368 77.026 24.688C77.026 24.008 77.162 23.412 77.434 22.9C77.714 22.38 78.102 21.98 78.598 21.7C79.102 21.42 79.678 21.28 80.326 21.28C80.95 21.28 81.506 21.416 81.994 21.688C82.482 21.96 82.862 22.344 83.134 22.84C83.406 23.328 83.542 23.892 83.542 24.532ZM82.114 24.1C82.106 23.596 81.926 23.192 81.574 22.888C81.222 22.584 80.786 22.432 80.266 22.432C79.794 22.432 79.39 22.584 79.054 22.888C78.718 23.184 78.518 23.588 78.454 24.1H82.114Z" fill="#6D61F2"/>
<path d="M38 24C38 23.846 38 23.7022 37.9898 23.5482C37.9898 23.4866 37.9795 23.4353 37.9795 23.3737C37.9692 23.2813 37.9692 23.1992 37.959 23.1068C37.9487 23.0349 37.9487 22.9733 37.9384 22.9014C37.9282 22.7885 37.9076 22.6653 37.8974 22.5523C37.8974 22.5421 37.8974 22.5421 37.8974 22.5318C37.1068 27.039 33.2978 30.5092 28.6263 30.7864C28.4723 30.7967 28.3183 30.807 28.1643 30.807C28.1129 30.807 28.0513 30.807 28 30.807C27.9795 30.807 27.9692 30.807 27.9487 30.807C27.8563 30.807 27.7741 30.807 27.6817 30.7967C27.6509 30.7967 27.6201 30.7967 27.5893 30.7967C27.5688 30.7967 27.538 30.7967 27.5175 30.7967C27.4045 30.7864 27.2916 30.7762 27.1787 30.7659C22.5483 30.3655 18.8214 26.8131 18.1643 22.2546C18.1437 22.3881 18.1232 22.5215 18.1027 22.655C18.1027 22.6756 18.1027 22.6858 18.0924 22.7064C18.0719 22.8296 18.0616 22.9528 18.0513 23.076C18.0513 23.1273 18.0411 23.1786 18.0411 23.2402C18.0308 23.3326 18.0308 23.425 18.0205 23.5174C18 23.6817 18 23.8357 18 23.9897V24C18 28.4866 20.9569 32.2854 25.0226 33.5483C25.1766 33.5996 25.3409 33.6407 25.4949 33.6817C26.2957 33.8871 27.1273 34 27.9897 34C33.5236 34 38 29.5236 38 24Z" fill="#6D61F2"/>
<path d="M18.8008 22.1725C19.0985 24.2362 20.1047 26.1766 21.6344 27.614C22.117 28.0657 22.6509 28.4661 23.2155 28.8152C22.0656 27.6653 21.2956 26.1253 21.1827 24.462C20.9568 21.0637 23.2258 18.1581 26.3367 17.3778C26.7884 17.2649 27.2299 17.614 27.2299 18.0862V19.7084C27.2299 20.3347 26.8808 20.9097 26.3367 21.2279C25.3511 21.8234 24.694 22.9528 24.7761 24.2156C24.8891 25.8789 26.2854 27.2033 27.9486 27.2238C29.7556 27.2546 31.2238 25.7967 31.2238 24C31.2238 22.809 30.5769 21.7721 29.6221 21.2177C29.078 20.8994 28.7597 20.3039 28.7597 19.6776V18.0862C28.7597 17.614 29.2012 17.2649 29.6632 17.3778C32.6303 18.117 34.8275 20.807 34.8275 24C34.8275 25.8994 34.0472 27.6242 32.7843 28.8665C33.2977 28.5688 33.7802 28.2095 34.232 27.8193C35.8131 26.423 36.8809 24.5134 37.2402 22.4394L37.5071 20.9199C36.2135 16.9055 32.4455 14 27.9999 14C23.657 14 19.9609 16.7721 18.5851 20.6427L18.8008 22.1725Z" fill="#6D61F2"/>
</svg>
