<svg width="24" height="24" viewBox="0 0 24 24" fill="none" xmlns="http://www.w3.org/2000/svg">
<path d="M12 22C6.477 22 2 17.523 2 12C2 6.477 6.477 2 12 2C17.523 2 22 6.477 22 12C22 17.523 17.523 22 12 22ZM7 18.245V13C7 12.4696 7.21071 11.9609 7.58579 11.5858C7.96086 11.2107 8.46957 11 9 11H15C15.5304 11 16.0391 11.2107 16.4142 11.5858C16.7893 11.9609 17 12.4696 17 13V18.245C18.2939 17.2091 19.234 15.7969 19.6905 14.2035C20.1471 12.6102 20.0974 10.9144 19.5485 9.35047C18.9996 7.78656 17.9784 6.43175 16.6262 5.47328C15.274 4.51481 13.6575 4 12 4C10.3425 4 8.726 4.51481 7.37378 5.47328C6.02156 6.43175 5.00043 7.78656 4.45149 9.35047C3.90256 10.9144 3.85293 12.6102 4.30946 14.2035C4.76599 15.7969 5.70615 17.2091 7 18.245Z" fill="#6E80B0"/>
</svg>
