<svg width="64" height="64" viewBox="0 0 64 64" fill="none" xmlns="http://www.w3.org/2000/svg">
<rect width="64" height="64" rx="16" fill="#FDE901"/>
<path d="M32 52C43.0457 52 52 43.0457 52 32C52 20.9543 43.0457 12 32 12C20.9543 12 12 20.9543 12 32C12 43.0457 20.9543 52 32 52Z" fill="white"/>
<mask id="mask0" mask-type="alpha" maskUnits="userSpaceOnUse" x="12" y="12" width="40" height="40">
<path d="M32 52C43.0457 52 52 43.0457 52 32C52 20.9543 43.0457 12 32 12C20.9543 12 12 20.9543 12 32C12 43.0457 20.9543 52 32 52Z" fill="#333333"/>
</mask>
<g mask="url(#mask0)">
<path d="M30.7336 20.8667C30.4002 20.8667 30.0669 21.1333 30.0669 21.5333V31.6667C30.0669 32 29.8669 32.3333 29.5336 32.4C29.1336 32.4667 28.7336 32.1333 28.7336 31.7333V21.5333C28.7336 21.2 28.4669 20.8667 28.0669 20.8667H28.0002C27.6669 20.8667 27.3336 21.1333 27.3336 21.5333V31.6667C27.3336 32 27.1336 32.3333 26.8002 32.4C26.4002 32.4667 26.0002 32.1333 26.0002 31.7333V21.5333C26.0002 21.2 25.7336 20.8667 25.3336 20.8667C25.0002 20.8667 24.6669 21.1333 24.6669 21.5333V31.7333C24.6669 32.0667 24.4669 32.4 24.1336 32.4667C23.7336 32.5333 23.3336 32.2 23.3336 31.8V21.5333C23.3336 21.2 23.0669 20.8667 22.6669 20.8667C22.3336 20.8667 22.0002 21.1333 22.0002 21.4667C21.9336 24.2667 21.6002 35.4667 22.0669 36.2667C22.9336 37.8 24.0669 37.8666 24.8669 39.5333C25.6669 41.2 25.8669 44.4 25.6002 48C25.1336 54.9333 23.2669 62.9333 23.9336 64.4666C24.8002 66.4 26.2002 66.4666 26.6002 66.4666C27.0002 66.4666 28.4002 66.3333 29.2669 64.4666C30.0002 62.9333 28.1336 54.9333 27.6002 48C27.3336 44.4 27.5336 41.1333 28.3336 39.5333C29.1336 37.8666 30.3336 37.8 31.1336 36.2667C31.5336 35.4667 31.2669 24.2667 31.2002 21.4667C31.3336 21.1333 31.0669 20.8667 30.7336 20.8667Z" fill="#211F21"/>
<path d="M41.3335 20.0667C41.3335 19.4 40.5335 19.1333 40.1335 19.5333C39.1335 20.6 37.7335 22.4667 36.7335 25.5333C35.5335 29.3333 35.2001 40.2 36.0001 42.2C36.7335 44 37.3335 43.3333 37.8668 44.1333C38.6668 45.4666 38.4001 47 38.1335 50.6C37.6668 57.5333 35.8668 63 36.5335 64.5333C37.4001 66.4666 38.8001 66.5333 39.2001 66.5333C39.6001 66.5333 41.0001 66.4 41.8668 64.5333C42.6001 63 40.5335 46.3333 40.8001 42.3333C41.0668 40.6 41.4668 24.8667 41.3335 20.0667Z" fill="#211F21"/>
</g>
</svg>
