<svg width="48" height="48" viewBox="0 0 48 48" fill="none" xmlns="http://www.w3.org/2000/svg">
<rect width="48" height="48" rx="16" fill="#F8F8FA"/>
<path d="M27.85 16.4917C27.7532 16.3947 27.6383 16.3177 27.5117 16.2652C27.3852 16.2127 27.2495 16.1856 27.1125 16.1856C26.9755 16.1856 26.8398 16.2127 26.7133 16.2652C26.5867 16.3177 26.4718 16.3947 26.375 16.4917L19.45 23.4167C19.3727 23.4938 19.3115 23.5853 19.2696 23.6861C19.2278 23.787 19.2063 23.895 19.2063 24.0042C19.2063 24.1133 19.2278 24.2214 19.2696 24.3222C19.3115 24.423 19.3727 24.5146 19.45 24.5917L26.375 31.5167C26.7833 31.925 27.4417 31.925 27.85 31.5167C28.2583 31.1083 28.2583 30.45 27.85 30.0417L21.8167 24L27.8583 17.9583C28.2583 17.5583 28.2583 16.8917 27.85 16.4917Z" fill="#18172B" stroke="#18172B" stroke-width="0.4"/>
</svg>
